<?xml version="1.0" standalone="no"?><!DOCTYPE svg PUBLIC "-//W3C//DTD SVG 1.1//EN" "http://www.w3.org/Graphics/SVG/1.1/DTD/svg11.dtd"><svg t="1711890705294" class="icon" viewBox="0 0 1024 1024" version="1.1" xmlns="http://www.w3.org/2000/svg" p-id="7466" xmlns:xlink="http://www.w3.org/1999/xlink" width="32" height="32"><path d="M427.9296 99.5328l13.312 26.112a79.36 79.36 0 0 0 141.5168 0l13.312-26.112 28.16 7.8336a419.2256 419.2256 0 0 1 173.568 97.1264l19.5584 18.176-11.776 23.9104a79.36 79.36 0 0 0 71.2192 114.3808h1.1264l26.6752-0.3584 8.0384 25.4464a421.5808 421.5808 0 0 1 10.752 210.4832l-6.5536 31.6928-32.1536-3.1744a79.36 79.36 0 0 0-68.608 130.0992l20.8384 24.6784-22.3744 23.296a419.6864 419.6864 0 0 1-182.5792 111.3088l-33.6384 10.0352-10.752-33.4336a79.4112 79.4112 0 0 0-151.1936 0l-10.7008 33.4336-33.6384-10.0352a419.6864 419.6864 0 0 1-182.5792-111.3088l-22.3744-23.296 20.8384-24.6784a79.36 79.36 0 0 0-68.608-130.0992l-32.1536 3.1744-6.5024-31.6928a421.5296 421.5296 0 0 1 10.752-210.432l7.9872-25.4976 26.6752 0.3584h1.1264a79.36 79.36 0 0 0 71.2192-114.3808l-11.776-23.9104 19.5584-18.176a419.2256 419.2256 0 0 1 173.568-97.1264l28.16-7.8336zM292.864 241.4592a151.1424 151.1424 0 0 1-119.3984 188.928 349.184 349.184 0 0 0-7.1168 123.8016 151.04 151.04 0 0 1 115.2 218.8288 348.16 348.16 0 0 0 101.9904 62.72A150.8864 150.8864 0 0 1 512 764.16c54.272 0 101.8368 28.672 128.4608 71.5776a348.16 348.16 0 0 0 101.9392-62.72 151.04 151.04 0 0 1 115.2-218.8288 352.4608 352.4608 0 0 0-7.0656-123.8016 151.0912 151.0912 0 0 1-119.3472-188.928A347.4944 347.4944 0 0 0 629.7088 184.32 150.7328 150.7328 0 0 1 512 240.64c-47.616 0-90.0608-22.016-117.76-56.3712-37.0688 13.312-71.3216 32.768-101.376 57.1904z" fill="#EE7785" p-id="7467"></path><path d="M341.76 512a170.24 170.24 0 1 1 340.48 0 170.24 170.24 0 0 1-340.48 0zM512 413.44a98.56 98.56 0 1 0 0 197.12 98.56 98.56 0 0 0 0-197.12z" fill="#EE7785" p-id="7468"></path></svg>